<svg xmlns="http://www.w3.org/2000/svg" width="18" height="18" viewBox="0 0 18 18" fill="none">
  <path d="M4.83301 7.05587C4.83301 6.46643 5.06716 5.90113 5.48396 5.48433C5.90076 5.06753 6.46606 4.83337 7.05551 4.83337H14.2772C14.569 4.83337 14.858 4.89086 15.1277 5.00255C15.3973 5.11424 15.6423 5.27795 15.8487 5.48433C16.0551 5.69071 16.2188 5.93571 16.3305 6.20536C16.4422 6.47501 16.4997 6.76401 16.4997 7.05587V14.2775C16.4997 14.5694 16.4422 14.8584 16.3305 15.1281C16.2188 15.3977 16.0551 15.6427 15.8487 15.8491C15.6423 16.0555 15.3973 16.2192 15.1277 16.3309C14.858 16.4426 14.569 16.5 14.2772 16.5H7.05551C6.76364 16.5 6.47464 16.4426 6.20499 16.3309C5.93535 16.2192 5.69034 16.0555 5.48396 15.8491C5.27758 15.6427 5.11388 15.3977 5.00219 15.1281C4.89049 14.8584 4.83301 14.5694 4.83301 14.2775V7.05587Z" stroke="white" stroke-opacity="0.7" stroke-width="1.5" stroke-linecap="round" stroke-linejoin="round"/>
  <path d="M2.34333 12.9475C2.08779 12.8018 1.87523 12.5912 1.72715 12.3371C1.57906 12.0829 1.50071 11.7942 1.5 11.5V3.16667C1.5 2.25 2.25 1.5 3.16667 1.5H11.5C12.125 1.5 12.465 1.82083 12.75 2.33333" stroke="white" stroke-opacity="0.7" stroke-width="1.5" stroke-linecap="round" stroke-linejoin="round"/>
</svg>