<svg xmlns="http://www.w3.org/2000/svg" width="17" height="17" viewBox="0 0 17 17" fill="none">
  <path d="M4.33301 6.55587C4.33301 5.96643 4.56716 5.40113 4.98396 4.98433C5.40076 4.56753 5.96606 4.33337 6.55551 4.33337H13.7772C14.069 4.33337 14.358 4.39086 14.6277 4.50255C14.8973 4.61424 15.1423 4.77795 15.3487 4.98433C15.5551 5.19071 15.7188 5.43571 15.8305 5.70536C15.9422 5.97501 15.9997 6.26401 15.9997 6.55587V13.7775C15.9997 14.0694 15.9422 14.3584 15.8305 14.6281C15.7188 14.8977 15.5551 15.1427 15.3487 15.3491C15.1423 15.5555 14.8973 15.7192 14.6277 15.8309C14.358 15.9426 14.069 16 13.7772 16H6.55551C6.26364 16 5.97464 15.9426 5.70499 15.8309C5.43535 15.7192 5.19034 15.5555 4.98396 15.3491C4.77758 15.1427 4.61388 14.8977 4.50219 14.6281C4.39049 14.3584 4.33301 14.0694 4.33301 13.7775V6.55587Z" stroke="black" stroke-opacity="0.5" stroke-width="1.5" stroke-linecap="round" stroke-linejoin="round"/>
  <path d="M1.84333 12.4475C1.58779 12.3018 1.37523 12.0912 1.22715 11.8371C1.07906 11.5829 1.00071 11.2942 1 11V2.66667C1 1.75 1.75 1 2.66667 1H11C11.625 1 11.965 1.32083 12.25 1.83333" stroke="black" stroke-opacity="0.5" stroke-width="1.5" stroke-linecap="round" stroke-linejoin="round"/>
</svg>