<svg xmlns="http://www.w3.org/2000/svg" width="14" height="14" viewBox="0 0 14 14" fill="none">
  <path fill-rule="evenodd" clip-rule="evenodd" d="M1.55555 6.68888C1.55555 3.85382 3.85382 1.55555 6.68888 1.55555C9.52394 1.55555 11.8222 3.85382 11.8222 6.68888C11.8222 9.52394 9.52394 11.8222 6.68888 11.8222C3.85382 11.8222 1.55555 9.52394 1.55555 6.68888ZM6.68888 0C2.99471 0 0 2.99471 0 6.68888C0 10.383 2.99471 13.3778 6.68888 13.3778C10.383 13.3778 13.3778 10.383 13.3778 6.68888C13.3778 2.99471 10.383 0 6.68888 0ZM12.528 11.4278C12.2243 11.1241 11.7318 11.1241 11.4281 11.4278C11.1244 11.7316 11.1244 12.224 11.4281 12.5278L12.6725 13.7722C12.9763 14.0759 13.4687 14.0759 13.7725 13.7722C14.0762 13.4685 14.0762 12.976 13.7725 12.6723L12.528 11.4278Z" fill="#999999"/>
</svg>