<svg xmlns="http://www.w3.org/2000/svg" width="18" height="18" viewBox="0 0 18 18" fill="none">
  <path d="M16.5 6V9.75C16.5 12.75 15 14.25 12 14.25H11.625C11.3925 14.25 11.1675 14.3625 11.025 14.55L9.9 16.05C9.405 16.71 8.595 16.71 8.1 16.05L6.975 14.55C6.855 14.385 6.5775 14.25 6.375 14.25H6C3 14.25 1.5 13.5 1.5 9.75V6C1.5 3 3 1.5 6 1.5H9" stroke="#687586" stroke-width="2" stroke-miterlimit="10" stroke-linecap="round" stroke-linejoin="round"/>
  <path opacity="0.5" d="M11.3998 3.46497C11.1523 2.72247 11.4448 1.80747 12.2548 1.55247C12.6748 1.42497 13.1998 1.52997 13.4998 1.92747C13.7848 1.51497 14.3248 1.42497 14.7448 1.55247C15.5548 1.79997 15.8473 2.72247 15.5998 3.46497C15.2173 4.64247 13.8748 5.24997 13.4998 5.24997C13.1248 5.24997 11.7973 4.64997 11.3998 3.46497Z" stroke="#687586" stroke-width="2" stroke-linecap="round" stroke-linejoin="round"/>
  <path opacity="0.5" d="M11.9978 8.25H12.0046" stroke="#687586" stroke-width="2" stroke-linecap="round" stroke-linejoin="round"/>
  <path opacity="0.5" d="M8.99686 8.25H9.00359" stroke="#687586" stroke-width="2" stroke-linecap="round" stroke-linejoin="round"/>
  <path opacity="0.5" d="M5.99588 8.25H6.00262" stroke="#687586" stroke-width="2" stroke-linecap="round" stroke-linejoin="round"/>
</svg>